<?xml version="1.0" standalone="no"?><!-- Generator: Gravit.io --><svg xmlns="http://www.w3.org/2000/svg" xmlns:xlink="http://www.w3.org/1999/xlink" style="isolation:isolate" viewBox="208 5 102 102" width="102" height="102"><g id="Group"><g id="SpringpadStoneCircle"><path d=" M 209 56 C 209 28.4 231.4 6 259 6 C 286.6 6 309 28.4 309 56 C 309 83.6 286.6 106 259 106 C 231.4 106 209 83.6 209 56 Z " fill="none" vector-effect="non-scaling-stroke" stroke-width="2" stroke="rgb(1,118,151)" stroke-linejoin="round" stroke-linecap="butt" stroke-miterlimit="1.414"/><g id="Group"/></g><g id="Group"><path d=" M 255.44 34.95 L 262.56 34.95 L 262.56 38.36 L 255.44 38.36 L 255.44 34.95 Z  M 257.44 40.52 L 260.57 40.52 L 260.57 41.85 C 259.54 41.78 258.5 41.78 257.46 41.85 L 257.46 40.52 L 257.44 40.52 Z  M 259 43.98 C 245.54 43.98 234.61 54.93 234.61 68.37 C 234.61 81.8 245.56 92.75 259 92.75 C 272.44 92.75 283.39 81.8 283.39 68.37 C 283.39 54.93 272.46 43.98 259 43.98 Z  M 259 89.62 C 247.27 89.62 237.74 80.09 237.74 68.37 C 237.74 56.64 247.27 47.11 259 47.11 C 270.73 47.11 280.26 56.64 280.26 68.37 C 280.26 80.09 270.73 89.62 259 89.62 Z " fill="rgb(1,118,151)"/><path d=" M 275.14 43.31 L 277.14 40.56 L 281.02 43.37 L 279.01 46.12 L 275.14 43.31 Z  M 275.48 46.23 L 276.12 46.7 L 275.48 47.56 C 275.27 47.4 275.07 47.23 274.86 47.08 L 275.48 46.23 L 275.48 46.23 Z  M 236.43 43.37 L 240.3 40.56 L 242.31 43.31 L 238.44 46.12 L 236.43 43.37 Z  M 241.32 46.68 L 241.96 46.21 L 242.79 47.35 C 242.59 47.51 242.38 47.66 242.17 47.84 L 241.32 46.68 L 241.32 46.68 Z  M 259 49.27 C 248.81 49.27 240.46 57.3 239.92 67.36 L 242.73 67.36 C 243.33 67.36 243.81 67.85 243.81 68.45 C 243.81 69.06 243.33 69.54 242.73 69.54 L 239.94 69.54 C 240.53 79.18 248.28 86.91 257.91 87.44 L 257.91 84.47 C 257.91 83.86 258.39 83.38 259 83.38 C 259.61 83.38 260.09 83.86 260.09 84.47 L 260.09 87.44 C 270.12 86.87 278.11 78.55 278.11 68.38 C 278.11 57.83 269.53 49.27 259 49.27 Z  M 273.7 69.52 L 260.89 69.52 C 260.49 70.16 259.8 70.6 259 70.6 C 257.77 70.6 256.79 69.59 256.79 68.38 C 256.79 67.61 257.18 66.93 257.79 66.53 L 257.79 53.63 C 257.79 53.03 258.27 52.54 258.88 52.54 C 259.48 52.54 259.97 53.03 259.97 53.63 L 259.97 66.39 C 260.4 66.6 260.75 66.95 260.97 67.38 L 273.72 67.38 C 274.32 67.38 274.81 67.86 274.81 68.47 C 274.79 69.04 274.31 69.52 273.7 69.52 L 273.7 69.52 Z  M 253.28 37.82 L 253.28 35.02 C 251.81 33.52 250.99 31.51 250.99 29.42 C 250.99 25.01 254.59 21.41 259 21.41 C 263.41 21.41 267.01 25.01 267.01 29.42 C 267.01 31.56 266.18 33.55 264.72 35.02 L 264.72 37.82 C 267.51 35.92 269.17 32.82 269.17 29.42 C 269.17 23.81 264.6 19.25 259 19.25 C 253.4 19.25 248.83 23.81 248.83 29.42 C 248.83 32.81 250.49 35.92 253.28 37.82 Z " fill="rgb(239,81,35)"/></g></g></svg>