<?xml version="1.0" standalone="no"?><!-- Generator: Gravit.io --><svg xmlns="http://www.w3.org/2000/svg" xmlns:xlink="http://www.w3.org/1999/xlink" style="isolation:isolate" viewBox="318 136.401 102.771 102.5" width="102.771" height="102.5"><g id="Group"><path d=" M 327 213 L 363 176 L 373 176 L 414 209 Q 406.89 221.78 398 228 Q 389.11 234.22 375 237.4 L 363 237.4 Q 352.26 234.81 341 229 Q 326.98 216.96 327 213 Z " fill="rgb(138,166,179)" vector-effect="non-scaling-stroke" stroke-width="1" stroke="rgb(0,0,0)" stroke-linejoin="miter" stroke-linecap="square" stroke-miterlimit="3"/><g id="Group"><path d=" M 372.2 216.04 L 371.36 203.16 L 364.21 203.16 L 363.54 216.04 L 372.2 216.04 Z  M 372.51 220.67 L 373.5 235.75 L 362.5 235.75 L 363.29 220.67 L 372.51 220.67 Z  M 371.13 199.68 L 370.52 190.41 L 364.89 190.41 L 364.4 199.68 L 371.13 199.68 Z  M 370.37 188.09 L 369.57 176 L 365.64 176 L 365.01 188.09 L 370.37 188.09 Z " fill="rgb(193,193,81)"/></g><path d=" M 327 213 Q 310.65 178.67 334 153 L 352 157 L 363 147 L 378 157 L 394 152 L 417 172 Q 422.73 195.28 414 209 L 373 176 L 363 176 L 327 213 Z " fill="rgb(185,185,185)" vector-effect="non-scaling-stroke" stroke-width="1" stroke="rgb(0,0,0)" stroke-linejoin="miter" stroke-linecap="square" stroke-miterlimit="3"/><path d=" M 352 157 L 363 147 L 378 157 Q 372.89 162.9 369 162 Q 365.11 161.1 361 157 Q 361.67 161.07 357 162 Q 352.33 162.93 352 157 Z " fill="rgb(255,255,255)" vector-effect="non-scaling-stroke" stroke-width="1" stroke="rgb(0,0,0)" stroke-linejoin="miter" stroke-linecap="square" stroke-miterlimit="3"/><path d=" M 394 152 L 378 157 Q 377.9 166.61 382 165 C 386.1 163.39 394.21 157.88 397 162 C 399.79 166.12 409.99 169.07 410 166 L 394 152 Z " fill="rgb(255,255,255)" vector-effect="non-scaling-stroke" stroke-width="1" stroke="rgb(0,0,0)" stroke-linejoin="miter" stroke-linecap="square" stroke-miterlimit="3"/><path d=" M 361 160 L 367 176 L 373 176 L 378 162" fill="none" vector-effect="non-scaling-stroke" stroke-width="1" stroke="rgb(0,0,0)" stroke-linejoin="miter" stroke-linecap="square" stroke-miterlimit="3"/><g id="SpringpadStoneCircle"><path d=" M 319 187.4 C 319 159.81 341.4 137.4 369 137.4 C 396.6 137.4 419 159.81 419 187.4 C 419 215 396.6 237.4 369 237.4 C 341.4 237.4 319 215 319 187.4 Z " fill="none" vector-effect="non-scaling-stroke" stroke-width="2" stroke="rgb(255,255,255)" stroke-linejoin="round" stroke-linecap="butt" stroke-miterlimit="1.414"/><g id="Group"/></g><line x1="397" y1="162" x2="411" y2="206" vector-effect="non-scaling-stroke" stroke-width="1" stroke="rgb(0,0,0)" stroke-linejoin="miter" stroke-linecap="square" stroke-miterlimit="3"/><path d=" M 321 195 Q 327.68 190.43 335.3 192.44 C 337.79 193.1 340.36 194.29 343 196 L 327 213 L 321 195 Z " fill="rgb(0,150,136)" vector-effect="non-scaling-stroke" stroke-width="1" stroke="rgb(0,0,0)" stroke-linejoin="miter" stroke-linecap="square" stroke-miterlimit="3"/><path d=" M 352 187 Q 339.46 186.02 337 192.44 L 343 196 L 352 187 Z " fill="rgb(42,131,145)" vector-effect="non-scaling-stroke" stroke-width="1" stroke="rgb(0,0,0)" stroke-linejoin="miter" stroke-linecap="square" stroke-miterlimit="3"/><path d=" M 397 195 Q 413.69 188.28 417 195 Q 417.91 199.17 414 209 L 397 195 Z " fill="rgb(0,150,136)" vector-effect="non-scaling-stroke" stroke-width="1" stroke="rgb(0,0,0)" stroke-linejoin="miter" stroke-linecap="square" stroke-miterlimit="3"/></g></svg>