<?xml version="1.0" standalone="no"?><!-- Generator: Gravit.io --><svg xmlns="http://www.w3.org/2000/svg" xmlns:xlink="http://www.w3.org/1999/xlink" style="isolation:isolate" viewBox="103.25 23.25 389.688 211.5" width="389.688" height="211.5"><g id="Group"><path d=" M 115 125.5 C 115 98.32 137.07 76.25 164.25 76.25 C 191.43 76.25 213.5 98.32 213.5 125.5 C 213.5 152.68 191.43 174.75 164.25 174.75 C 137.07 174.75 115 152.68 115 125.5 Z " fill="none" vector-effect="non-scaling-stroke" stroke-width="1.5" stroke="rgb(153,0,255)" stroke-linejoin="round" stroke-linecap="butt" stroke-miterlimit="1.414"/><path d=" M 323 186 C 323 159.51 344.51 138 371 138 C 397.49 138 419 159.51 419 186 C 419 212.49 397.49 234 371 234 C 344.51 234 323 212.49 323 186 Z " fill="none" vector-effect="non-scaling-stroke" stroke-width="1.5" stroke="rgb(255,153,0)" stroke-linejoin="round" stroke-linecap="butt" stroke-miterlimit="1.414"/><path d=" M 300 76.25 C 300 49.62 321.62 28 348.25 28 C 374.88 28 396.5 49.62 396.5 76.25 C 396.5 102.88 374.88 124.5 348.25 124.5 C 321.62 124.5 300 102.88 300 76.25 Z " fill="none" vector-effect="non-scaling-stroke" stroke-width="1.5" stroke="rgb(255,221,0)" stroke-linejoin="round" stroke-linecap="butt" stroke-miterlimit="1.414"/><path d=" M 234.5 152.5 C 234.5 121.32 259.82 96 291 96 C 322.18 96 347.5 121.32 347.5 152.5 C 347.5 183.68 322.18 209 291 209 C 259.82 209 234.5 183.68 234.5 152.5 Z " fill="none" vector-effect="non-scaling-stroke" stroke-width="2" stroke="rgb(232,78,134)" stroke-linejoin="round" stroke-linecap="butt" stroke-miterlimit="1.414"/><path d=" M 396.5 204.75 C 396.5 190.12 408.37 178.25 423 178.25 C 437.63 178.25 449.5 190.12 449.5 204.75 C 449.5 219.38 437.63 231.25 423 231.25 C 408.37 231.25 396.5 219.38 396.5 204.75 Z " fill="none" vector-effect="non-scaling-stroke" stroke-width="1.5" stroke="rgb(70,199,238)" stroke-linejoin="round" stroke-linecap="butt" stroke-miterlimit="1.414"/><path d=" M 286.25 167 C 286.25 165.9 285.35 165 284.25 165 C 283.15 165 282.25 165.9 282.25 167 C 282.25 168.1 283.15 169 284.25 169 C 285.35 169 286.25 168.1 286.25 167 Z " fill="rgb(255,153,0)"/><path d=" M 293.25 167 C 293.25 165.9 292.35 165 291.25 165 C 290.15 165 289.25 165.9 289.25 167 C 289.25 168.1 290.15 169 291.25 169 C 292.35 169 293.25 168.1 293.25 167 Z " fill="rgb(255,0,255)"/><path d=" M 299.75 167 C 299.75 165.9 298.85 165 297.75 165 C 296.65 165 295.75 165.9 295.75 167 C 295.75 168.1 296.65 169 297.75 169 C 298.85 169 299.75 168.1 299.75 167 Z " fill="rgb(153,0,255)"/><path d=" M 104 178.25 C 104 149.96 126.96 127 155.25 127 C 183.54 127 206.5 149.96 206.5 178.25 C 206.5 206.54 183.54 229.5 155.25 229.5 C 126.96 229.5 104 206.54 104 178.25 Z " fill="none" vector-effect="non-scaling-stroke" stroke-width="1.5" stroke="rgb(255,119,0)" stroke-opacity="0.9" stroke-linejoin="round" stroke-linecap="butt" stroke-miterlimit="1.414"/><path d=" M 172 91.75 C 172 70.36 189.36 53 210.75 53 C 232.14 53 249.5 70.36 249.5 91.75 C 249.5 113.14 232.14 130.5 210.75 130.5 C 189.36 130.5 172 113.14 172 91.75 Z " fill="none" vector-effect="non-scaling-stroke" stroke-width="1.5" stroke="rgb(164,164,79)" stroke-linejoin="round" stroke-linecap="butt" stroke-miterlimit="1.414"/><path d=" M 233 81.75 C 233 66.16 245.66 53.5 261.25 53.5 C 276.84 53.5 289.5 66.16 289.5 81.75 C 289.5 97.34 276.84 110 261.25 110 C 245.66 110 233 97.34 233 81.75 Z " fill="none" vector-effect="non-scaling-stroke" stroke-width="1.5" stroke="rgb(74,134,232)" stroke-linejoin="round" stroke-linecap="butt" stroke-miterlimit="1.414"/><path d=" M 264.25 53.5 C 264.25 43.84 272.09 36 281.75 36 C 291.41 36 299.25 43.84 299.25 53.5 C 299.25 63.16 291.41 71 281.75 71 C 272.09 71 264.25 63.16 264.25 53.5 Z " fill="none" vector-effect="non-scaling-stroke" stroke-width="1.5" stroke="rgb(47,195,195)" stroke-linejoin="round" stroke-linecap="butt" stroke-miterlimit="1.414"/><path d=" M 275.75 34 C 275.75 28.48 280.23 24 285.75 24 C 291.27 24 295.75 28.48 295.75 34 C 295.75 39.52 291.27 44 285.75 44 C 280.23 44 275.75 39.52 275.75 34 Z " fill="none" vector-effect="non-scaling-stroke" stroke-width="1.5" stroke="rgb(255,153,0)" stroke-linejoin="round" stroke-linecap="butt" stroke-miterlimit="1.414"/><path d=" M 196 198 C 196 178.68 211.68 163 231 163 C 250.32 163 266 178.68 266 198 C 266 217.32 250.32 233 231 233 C 211.68 233 196 217.32 196 198 Z " fill="none" vector-effect="non-scaling-stroke" stroke-width="1.5" stroke="rgb(0,150,136)" stroke-linejoin="round" stroke-linecap="butt" stroke-miterlimit="1.414"/><path d=" M 368.19 136 C 368.19 101.78 395.97 74 430.19 74 C 464.41 74 492.19 101.78 492.19 136 C 492.19 170.22 464.41 198 430.19 198 C 395.97 198 368.19 170.22 368.19 136 Z " fill="none" vector-effect="non-scaling-stroke" stroke-width="1.5" stroke="rgb(255,0,255)" stroke-linejoin="round" stroke-linecap="butt" stroke-miterlimit="1.414"/><path d=" M 290.35 156.75 L 286.11 143.31 L 286.92 143.31 L 286.92 143.31 Q 287.2 143.31 287.27 143.57 L 287.27 143.57 L 290.67 154.62 L 290.67 154.62 Q 290.72 154.81 290.76 155.02 L 290.76 155.02 L 290.76 155.02 Q 290.81 155.24 290.86 155.48 L 290.86 155.48 L 290.86 155.48 Q 290.9 155.24 290.95 155.02 L 290.95 155.02 L 290.95 155.02 Q 291 154.81 291.06 154.62 L 291.06 154.62 L 294.86 143.57 L 294.86 143.57 Q 294.9 143.46 295 143.39 L 295 143.39 L 295 143.39 Q 295.09 143.31 295.23 143.31 L 295.23 143.31 L 295.49 143.31 L 295.49 143.31 Q 295.62 143.31 295.71 143.38 L 295.71 143.38 L 295.71 143.38 Q 295.8 143.45 295.84 143.57 L 295.84 143.57 L 299.64 154.62 L 299.64 154.62 Q 299.71 154.81 299.76 155.01 L 299.76 155.01 L 299.76 155.01 Q 299.81 155.22 299.86 155.46 L 299.86 155.46 L 299.86 155.46 Q 299.91 155.23 299.95 155.02 L 299.95 155.02 L 299.95 155.02 Q 299.98 154.81 300.04 154.62 L 300.04 154.62 L 303.43 143.57 L 303.43 143.57 Q 303.46 143.46 303.56 143.39 L 303.56 143.39 L 303.56 143.39 Q 303.66 143.31 303.79 143.31 L 303.79 143.31 L 304.54 143.31 L 300.31 156.75 L 299.43 156.75 L 295.46 145.09 L 295.46 145.09 Q 295.39 144.86 295.33 144.6 L 295.33 144.6 L 295.33 144.6 Q 295.27 144.86 295.2 145.09 L 295.2 145.09 L 291.22 156.75 L 290.35 156.75 Z  M 307.15 156.75 L 306.25 156.75 L 306.25 142.93 L 307.15 142.93 L 307.15 148.92 L 307.15 148.92 Q 307.8 148.11 308.64 147.63 L 308.64 147.63 L 308.64 147.63 Q 309.48 147.15 310.53 147.15 L 310.53 147.15 L 310.53 147.15 Q 311.31 147.15 311.9 147.4 L 311.9 147.4 L 311.9 147.4 Q 312.5 147.64 312.89 148.11 L 312.89 148.11 L 312.89 148.11 Q 313.28 148.57 313.47 149.23 L 313.47 149.23 L 313.47 149.23 Q 313.67 149.88 313.67 150.71 L 313.67 150.71 L 313.67 156.75 L 312.77 156.75 L 312.77 150.71 L 312.77 150.71 Q 312.77 149.38 312.16 148.63 L 312.16 148.63 L 312.16 148.63 Q 311.56 147.87 310.3 147.87 L 310.3 147.87 L 310.3 147.87 Q 309.37 147.87 308.57 148.35 L 308.57 148.35 L 308.57 148.35 Q 307.77 148.83 307.15 149.67 L 307.15 149.67 L 307.15 156.75 Z  M 324.02 147.3 L 318.59 159.79 L 318.59 159.79 Q 318.53 159.93 318.44 160.01 L 318.44 160.01 L 318.44 160.01 Q 318.35 160.1 318.18 160.1 L 318.18 160.1 L 317.53 160.1 L 319.19 156.4 L 315.19 147.3 L 315.94 147.3 L 315.94 147.3 Q 316.09 147.3 316.17 147.37 L 316.17 147.37 L 316.17 147.37 Q 316.25 147.44 316.29 147.53 L 316.29 147.53 L 319.47 154.88 L 319.47 154.88 Q 319.53 155.02 319.57 155.17 L 319.57 155.17 L 319.57 155.17 Q 319.61 155.32 319.65 155.47 L 319.65 155.47 L 319.65 155.47 Q 319.7 155.32 319.75 155.17 L 319.75 155.17 L 319.75 155.17 Q 319.8 155.02 319.86 154.88 L 319.86 154.88 L 323 147.53 L 323 147.53 Q 323.05 147.42 323.14 147.36 L 323.14 147.36 L 323.14 147.36 Q 323.22 147.3 323.33 147.3 L 323.33 147.3 L 324.02 147.3 Z  M 264.22 152.84 L 264.22 152.84 L 264.22 152.84 Q 264.36 153.1 264.46 153.41 L 264.46 153.41 L 264.46 153.41 Q 264.52 153.26 264.58 153.11 L 264.58 153.11 L 264.58 153.11 Q 264.64 152.96 264.72 152.83 L 264.72 152.83 L 270 143.49 L 270 143.49 Q 270.08 143.37 270.15 143.34 L 270.15 143.34 L 270.15 143.34 Q 270.23 143.31 270.36 143.31 L 270.36 143.31 L 271.04 143.31 L 271.04 156.75 L 270.18 156.75 L 270.18 145.3 L 270.18 145.3 Q 270.18 145.05 270.21 144.77 L 270.21 144.77 L 264.92 154.17 L 264.92 154.17 Q 264.79 154.42 264.54 154.42 L 264.54 154.42 L 264.39 154.42 L 264.39 154.42 Q 264.15 154.42 264.01 154.17 L 264.01 154.17 L 258.57 144.76 L 258.57 144.76 Q 258.6 145.04 258.6 145.3 L 258.6 145.3 L 258.6 156.75 L 257.76 156.75 L 257.76 143.31 L 258.42 143.31 L 258.42 143.31 Q 258.56 143.31 258.64 143.34 L 258.64 143.34 L 258.64 143.34 Q 258.72 143.37 258.79 143.49 L 258.79 143.49 L 264.22 152.84 Z  M 282.07 147.3 L 276.63 159.79 L 276.63 159.79 Q 276.58 159.93 276.49 160.01 L 276.49 160.01 L 276.49 160.01 Q 276.4 160.1 276.23 160.1 L 276.23 160.1 L 275.58 160.1 L 277.24 156.4 L 273.24 147.3 L 273.99 147.3 L 273.99 147.3 Q 274.14 147.3 274.22 147.37 L 274.22 147.37 L 274.22 147.37 Q 274.3 147.44 274.33 147.53 L 274.33 147.53 L 277.52 154.88 L 277.52 154.88 Q 277.57 155.02 277.62 155.17 L 277.62 155.17 L 277.62 155.17 Q 277.66 155.32 277.7 155.47 L 277.7 155.47 L 277.7 155.47 Q 277.75 155.32 277.8 155.17 L 277.8 155.17 L 277.8 155.17 Q 277.85 155.02 277.91 154.88 L 277.91 154.88 L 281.05 147.53 L 281.05 147.53 Q 281.1 147.42 281.18 147.36 L 281.18 147.36 L 281.18 147.36 Q 281.27 147.3 281.37 147.3 L 281.37 147.3 L 282.07 147.3 Z " fill-rule="evenodd" fill="rgb(43,82,145)"/></g></svg>