<?xml version="1.0" standalone="no"?><!-- Generator: Gravit.io --><svg xmlns="http://www.w3.org/2000/svg" xmlns:xlink="http://www.w3.org/1999/xlink" style="isolation:isolate" viewBox="20.25 7.25 518.5 263.375" width="518.5" height="263.375"><g id="Group"><path d=" M 21 81.75 C 21 41.05 54.05 8 94.75 8 C 135.45 8 168.5 41.05 168.5 81.75 C 168.5 122.45 135.45 155.5 94.75 155.5 C 54.05 155.5 21 122.45 21 81.75 Z " fill="none" vector-effect="non-scaling-stroke" stroke-width="1.5" stroke="rgb(153,0,255)" stroke-linejoin="round" stroke-linecap="butt" stroke-miterlimit="1.414"/><path d=" M 322.13 215.44 C 322.13 185.39 346.52 161 376.56 161 C 406.61 161 431 185.39 431 215.44 C 431 245.48 406.61 269.88 376.56 269.88 C 346.52 269.88 322.13 245.48 322.13 215.44 Z " fill="none" vector-effect="non-scaling-stroke" stroke-width="1.5" stroke="rgb(255,153,0)" stroke-linejoin="round" stroke-linecap="butt" stroke-miterlimit="1.414"/><path d=" M 300 76.25 C 300 49.62 321.62 28 348.25 28 C 374.88 28 396.5 49.62 396.5 76.25 C 396.5 102.88 374.88 124.5 348.25 124.5 C 321.62 124.5 300 102.88 300 76.25 Z " fill="none" vector-effect="non-scaling-stroke" stroke-width="1.5" stroke="rgb(255,221,0)" stroke-linejoin="round" stroke-linecap="butt" stroke-miterlimit="1.414"/><path d=" M 217.25 179.25 C 217.25 140.2 248.95 108.5 288 108.5 C 327.05 108.5 358.75 140.2 358.75 179.25 C 358.75 218.3 327.05 250 288 250 C 248.95 250 217.25 218.3 217.25 179.25 Z " fill="none" vector-effect="non-scaling-stroke" stroke-width="2" stroke="rgb(232,78,134)" stroke-linejoin="round" stroke-linecap="butt" stroke-miterlimit="1.414"/><path d=" M 442 220.5 C 442 205.87 453.87 194 468.5 194 C 483.13 194 495 205.87 495 220.5 C 495 235.13 483.13 247 468.5 247 C 453.87 247 442 235.13 442 220.5 Z " fill="none" vector-effect="non-scaling-stroke" stroke-width="1.5" stroke="rgb(70,199,238)" stroke-linejoin="round" stroke-linecap="butt" stroke-miterlimit="1.414"/><path d=" M 283.25 195.25 C 283.25 194.15 282.35 193.25 281.25 193.25 C 280.15 193.25 279.25 194.15 279.25 195.25 C 279.25 196.35 280.15 197.25 281.25 197.25 C 282.35 197.25 283.25 196.35 283.25 195.25 Z " fill="rgb(255,153,0)"/><path d=" M 290.25 195.25 C 290.25 194.15 289.35 193.25 288.25 193.25 C 287.15 193.25 286.25 194.15 286.25 195.25 C 286.25 196.35 287.15 197.25 288.25 197.25 C 289.35 197.25 290.25 196.35 290.25 195.25 Z " fill="rgb(255,0,255)"/><path d=" M 296.75 195.25 C 296.75 194.15 295.85 193.25 294.75 193.25 C 293.65 193.25 292.75 194.15 292.75 195.25 C 292.75 196.35 293.65 197.25 294.75 197.25 C 295.85 197.25 296.75 196.35 296.75 195.25 Z " fill="rgb(153,0,255)"/><path d=" M 93 180.25 C 93 151.96 115.96 129 144.25 129 C 172.54 129 195.5 151.96 195.5 180.25 C 195.5 208.54 172.54 231.5 144.25 231.5 C 115.96 231.5 93 208.54 93 180.25 Z " fill="none" vector-effect="non-scaling-stroke" stroke-width="1.5" stroke="rgb(255,119,0)" stroke-opacity="0.9" stroke-linejoin="round" stroke-linecap="butt" stroke-miterlimit="1.414"/><path d=" M 122 100.25 C 122 78.86 139.36 61.5 160.75 61.5 C 182.14 61.5 199.5 78.86 199.5 100.25 C 199.5 121.64 182.14 139 160.75 139 C 139.36 139 122 121.64 122 100.25 Z " fill="none" vector-effect="non-scaling-stroke" stroke-width="1.5" stroke="rgb(164,164,79)" stroke-linejoin="round" stroke-linecap="butt" stroke-miterlimit="1.414"/><path d=" M 180 65.25 C 180 49.66 192.66 37 208.25 37 C 223.84 37 236.5 49.66 236.5 65.25 C 236.5 80.84 223.84 93.5 208.25 93.5 C 192.66 93.5 180 80.84 180 65.25 Z " fill="none" vector-effect="non-scaling-stroke" stroke-width="1.5" stroke="rgb(74,134,232)" stroke-linejoin="round" stroke-linecap="butt" stroke-miterlimit="1.414"/><path d=" M 172 223.25 C 172 199.52 191.27 180.25 215 180.25 C 238.73 180.25 258 199.52 258 223.25 C 258 246.98 238.73 266.25 215 266.25 C 191.27 266.25 172 246.98 172 223.25 Z " fill="none" vector-effect="non-scaling-stroke" stroke-width="1.5" stroke="rgb(0,150,136)" stroke-linejoin="round" stroke-linecap="butt" stroke-miterlimit="1.414"/><path d=" M 379 124.5 C 379 80.62 414.62 45 458.5 45 C 502.38 45 538 80.62 538 124.5 C 538 168.38 502.38 204 458.5 204 C 414.62 204 379 168.38 379 124.5 Z " fill="none" vector-effect="non-scaling-stroke" stroke-width="1.5" stroke="rgb(255,0,255)" stroke-linejoin="round" stroke-linecap="butt" stroke-miterlimit="1.414"/><path d=" M 287.35 185.69 L 283.11 172.25 L 283.92 172.25 L 283.92 172.25 Q 284.2 172.25 284.27 172.5 L 284.27 172.5 L 287.67 183.55 L 287.67 183.55 Q 287.72 183.74 287.76 183.96 L 287.76 183.96 L 287.76 183.96 Q 287.81 184.18 287.86 184.42 L 287.86 184.42 L 287.86 184.42 Q 287.9 184.18 287.95 183.96 L 287.95 183.96 L 287.95 183.96 Q 288 183.74 288.06 183.55 L 288.06 183.55 L 291.86 172.5 L 291.86 172.5 Q 291.9 172.4 292 172.32 L 292 172.32 L 292 172.32 Q 292.09 172.25 292.23 172.25 L 292.23 172.25 L 292.49 172.25 L 292.49 172.25 Q 292.62 172.25 292.71 172.32 L 292.71 172.32 L 292.71 172.32 Q 292.8 172.39 292.84 172.5 L 292.84 172.5 L 296.64 183.55 L 296.64 183.55 Q 296.71 183.74 296.76 183.95 L 296.76 183.95 L 296.76 183.95 Q 296.81 184.16 296.86 184.4 L 296.86 184.4 L 296.86 184.4 Q 296.91 184.17 296.95 183.96 L 296.95 183.96 L 296.95 183.96 Q 296.98 183.74 297.04 183.55 L 297.04 183.55 L 300.43 172.5 L 300.43 172.5 Q 300.46 172.4 300.56 172.32 L 300.56 172.32 L 300.56 172.32 Q 300.66 172.25 300.79 172.25 L 300.79 172.25 L 301.54 172.25 L 297.31 185.69 L 296.43 185.69 L 292.46 174.02 L 292.46 174.02 Q 292.39 173.8 292.33 173.54 L 292.33 173.54 L 292.33 173.54 Q 292.27 173.8 292.2 174.02 L 292.2 174.02 L 288.22 185.69 L 287.35 185.69 Z  M 304.15 185.69 L 303.25 185.69 L 303.25 171.87 L 304.15 171.87 L 304.15 177.85 L 304.15 177.85 Q 304.8 177.05 305.64 176.57 L 305.64 176.57 L 305.64 176.57 Q 306.48 176.09 307.53 176.09 L 307.53 176.09 L 307.53 176.09 Q 308.31 176.09 308.9 176.33 L 308.9 176.33 L 308.9 176.33 Q 309.5 176.58 309.89 177.05 L 309.89 177.05 L 309.89 177.05 Q 310.28 177.51 310.47 178.17 L 310.47 178.17 L 310.47 178.17 Q 310.67 178.82 310.67 179.65 L 310.67 179.65 L 310.67 185.69 L 309.77 185.69 L 309.77 179.65 L 309.77 179.65 Q 309.77 178.32 309.16 177.56 L 309.16 177.56 L 309.16 177.56 Q 308.56 176.81 307.3 176.81 L 307.3 176.81 L 307.3 176.81 Q 306.37 176.81 305.57 177.29 L 305.57 177.29 L 305.57 177.29 Q 304.77 177.77 304.15 178.6 L 304.15 178.6 L 304.15 185.69 Z  M 321.02 176.24 L 315.59 188.73 L 315.59 188.73 Q 315.53 188.86 315.44 188.95 L 315.44 188.95 L 315.44 188.95 Q 315.35 189.03 315.18 189.03 L 315.18 189.03 L 314.53 189.03 L 316.19 185.34 L 312.19 176.24 L 312.94 176.24 L 312.94 176.24 Q 313.09 176.24 313.17 176.31 L 313.17 176.31 L 313.17 176.31 Q 313.25 176.38 313.29 176.47 L 313.29 176.47 L 316.47 183.82 L 316.47 183.82 Q 316.53 183.96 316.57 184.11 L 316.57 184.11 L 316.57 184.11 Q 316.61 184.26 316.65 184.41 L 316.65 184.41 L 316.65 184.41 Q 316.7 184.26 316.75 184.11 L 316.75 184.11 L 316.75 184.11 Q 316.8 183.96 316.86 183.82 L 316.86 183.82 L 320 176.47 L 320 176.47 Q 320.05 176.36 320.14 176.3 L 320.14 176.3 L 320.14 176.3 Q 320.22 176.24 320.33 176.24 L 320.33 176.24 L 321.02 176.24 Z  M 261.22 181.78 L 261.22 181.78 L 261.22 181.78 Q 261.36 182.04 261.46 182.35 L 261.46 182.35 L 261.46 182.35 Q 261.52 182.19 261.58 182.05 L 261.58 182.05 L 261.58 182.05 Q 261.64 181.9 261.72 181.77 L 261.72 181.77 L 267 172.43 L 267 172.43 Q 267.08 172.3 267.15 172.28 L 267.15 172.28 L 267.15 172.28 Q 267.23 172.25 267.36 172.25 L 267.36 172.25 L 268.04 172.25 L 268.04 185.69 L 267.18 185.69 L 267.18 174.23 L 267.18 174.23 Q 267.18 173.99 267.21 173.71 L 267.21 173.71 L 261.92 183.11 L 261.92 183.11 Q 261.79 183.35 261.54 183.35 L 261.54 183.35 L 261.39 183.35 L 261.39 183.35 Q 261.15 183.35 261.01 183.11 L 261.01 183.11 L 255.57 173.7 L 255.57 173.7 Q 255.6 173.98 255.6 174.23 L 255.6 174.23 L 255.6 185.69 L 254.76 185.69 L 254.76 172.25 L 255.42 172.25 L 255.42 172.25 Q 255.56 172.25 255.64 172.28 L 255.64 172.28 L 255.64 172.28 Q 255.72 172.3 255.79 172.43 L 255.79 172.43 L 261.22 181.78 Z  M 279.07 176.24 L 273.63 188.73 L 273.63 188.73 Q 273.58 188.86 273.49 188.95 L 273.49 188.95 L 273.49 188.95 Q 273.4 189.03 273.23 189.03 L 273.23 189.03 L 272.58 189.03 L 274.24 185.34 L 270.24 176.24 L 270.99 176.24 L 270.99 176.24 Q 271.14 176.24 271.22 176.31 L 271.22 176.31 L 271.22 176.31 Q 271.3 176.38 271.33 176.47 L 271.33 176.47 L 274.52 183.82 L 274.52 183.82 Q 274.57 183.96 274.62 184.11 L 274.62 184.11 L 274.62 184.11 Q 274.66 184.26 274.7 184.41 L 274.7 184.41 L 274.7 184.41 Q 274.75 184.26 274.8 184.11 L 274.8 184.11 L 274.8 184.11 Q 274.85 183.96 274.91 183.82 L 274.91 183.82 L 278.05 176.47 L 278.05 176.47 Q 278.1 176.36 278.18 176.3 L 278.18 176.3 L 278.18 176.3 Q 278.27 176.24 278.37 176.24 L 278.37 176.24 L 279.07 176.24 Z " fill-rule="evenodd" fill="rgb(43,82,145)"/></g></svg>